<svg width="294" height="294" viewBox="0 0 294 294" fill="none" xmlns="http://www.w3.org/2000/svg">
<g opacity="0.5">
<mask id="path-1-inside-1_800_2452" fill="white">
<path d="M238.893 146.383C238.893 165.253 233.122 183.672 222.354 199.169C211.586 214.666 196.337 226.499 178.651 233.082L178.292 232.117C195.781 225.608 210.861 213.906 221.509 198.582C232.157 183.257 237.863 165.043 237.863 146.383H238.893Z"/>
</mask>
<path d="M238.893 146.383C238.893 165.253 233.122 183.672 222.354 199.169C211.586 214.666 196.337 226.499 178.651 233.082L178.292 232.117C195.781 225.608 210.861 213.906 221.509 198.582C232.157 183.257 237.863 165.043 237.863 146.383H238.893Z" stroke="#4F5D75" stroke-width="1.69741" mask="url(#path-1-inside-1_800_2452)"/>
<g opacity="0.5">
<mask id="path-2-inside-2_800_2452" fill="white">
<path d="M184.283 61.9949C201.497 69.7266 215.935 82.5377 225.66 98.7096C235.384 114.882 239.931 133.641 238.689 152.47L237.661 152.403C238.889 133.782 234.394 115.232 224.777 99.2402C215.161 83.2483 200.884 70.5798 183.861 62.9342L184.283 61.9949Z"/>
</mask>
<path d="M184.283 61.9949C201.497 69.7266 215.935 82.5377 225.66 98.7096C235.384 114.882 239.931 133.641 238.689 152.47L237.661 152.403C238.889 133.782 234.394 115.232 224.777 99.2402C215.161 83.2483 200.884 70.5798 183.861 62.9342L184.283 61.9949Z" stroke="#4F5D75" stroke-width="1.69741" mask="url(#path-2-inside-2_800_2452)"/>
</g>
<g opacity="0.5">
<mask id="path-3-inside-3_800_2452" fill="white">
<path d="M149.238 238.847C130.376 239.431 111.788 234.232 95.9652 223.948C80.1429 213.664 67.844 198.788 60.7184 181.314L61.6718 180.925C68.7181 198.204 80.8801 212.915 96.5263 223.085C112.173 233.254 130.554 238.395 149.206 237.818L149.238 238.847Z"/>
</mask>
<path d="M149.238 238.847C130.376 239.431 111.788 234.232 95.9652 223.948C80.1429 213.664 67.844 198.788 60.7184 181.314L61.6718 180.925C68.7181 198.204 80.8801 212.915 96.5263 223.085C112.173 233.254 130.554 238.395 149.206 237.818L149.238 238.847Z" stroke="#4F5D75" stroke-width="1.69741" mask="url(#path-3-inside-3_800_2452)"/>
</g>
<g opacity="0.5">
<mask id="path-4-inside-4_800_2452" fill="white">
<path d="M54.8143 159.535C52.1313 140.856 55.2249 121.804 63.68 104.933C72.1351 88.0628 85.5472 74.1816 102.117 65.1518L102.61 66.0559C86.2243 74.9852 72.9614 88.7119 64.6004 105.395C56.2395 122.077 53.1803 140.918 55.8335 159.389L54.8143 159.535Z"/>
</mask>
<path d="M54.8143 159.535C52.1313 140.856 55.2249 121.804 63.68 104.933C72.1351 88.0628 85.5472 74.1816 102.117 65.1518L102.61 66.0559C86.2243 74.9852 72.9614 88.7119 64.6004 105.395C56.2395 122.077 53.1803 140.918 55.8335 159.389L54.8143 159.535Z" stroke="#4F5D75" stroke-width="1.69741" mask="url(#path-4-inside-4_800_2452)"/>
</g>
<mask id="path-5-inside-5_800_2452" fill="white">
<path d="M94.5369 69.7691C105.042 62.66 116.896 57.7871 129.363 55.4531C141.831 53.1191 154.645 53.374 167.01 56.2019L166.781 57.2056C154.553 54.4092 141.882 54.1572 129.553 56.4651C117.224 58.7731 105.502 63.5918 95.1139 70.6218L94.5369 69.7691Z"/>
</mask>
<path d="M94.5369 69.7691C105.042 62.66 116.896 57.7871 129.363 55.4531C141.831 53.1191 154.645 53.374 167.01 56.2019L166.781 57.2056C154.553 54.4092 141.882 54.1572 129.553 56.4651C117.224 58.7731 105.502 63.5918 95.1139 70.6218L94.5369 69.7691Z" stroke="#4F5D75" stroke-width="1.69741" mask="url(#path-5-inside-5_800_2452)"/>
<mask id="path-6-inside-6_800_2452" fill="white">
<path d="M100.958 226.97C89.9087 220.742 80.2581 212.308 72.606 202.192C64.9539 192.076 59.4639 180.494 56.477 168.167L57.4777 167.924C60.4313 180.114 65.8602 191.567 73.4271 201.57C80.9941 211.574 90.5373 219.914 101.464 226.073L100.958 226.97Z"/>
</mask>
<path d="M100.958 226.97C89.9087 220.742 80.2581 212.308 72.606 202.192C64.9539 192.076 59.4639 180.494 56.477 168.167L57.4777 167.924C60.4313 180.114 65.8602 191.567 73.4271 201.57C80.9941 211.574 90.5373 219.914 101.464 226.073L100.958 226.97Z" stroke="#4F5D75" stroke-width="1.69741" mask="url(#path-6-inside-6_800_2452)"/>
<mask id="path-7-inside-7_800_2452" fill="white">
<path d="M206.376 100.851C215.695 113.058 221.059 127.822 221.747 143.164C222.434 158.506 218.414 173.691 210.225 186.683L209.516 186.236C217.614 173.389 221.59 158.373 220.909 143.202C220.229 128.031 214.926 113.43 205.71 101.36L206.376 100.851Z"/>
</mask>
<path d="M206.376 100.851C215.695 113.058 221.059 127.822 221.747 143.164C222.434 158.506 218.414 173.691 210.225 186.683L209.516 186.236C217.614 173.389 221.59 158.373 220.909 143.202C220.229 128.031 214.926 113.43 205.71 101.36L206.376 100.851Z" stroke="#4F5D75" stroke-width="1.38139" mask="url(#path-7-inside-7_800_2452)"/>
<g opacity="0.5">
<mask id="path-8-inside-8_800_2452" fill="white">
<path d="M129.377 73.2334C144.331 69.7336 159.996 70.8905 174.273 76.5489C188.55 82.2072 200.755 92.0964 209.251 104.89L208.553 105.353C200.152 92.7023 188.082 82.9232 173.964 77.3278C159.847 71.7324 144.355 70.5884 129.568 74.0493L129.377 73.2334Z"/>
</mask>
<path d="M129.377 73.2334C144.331 69.7336 159.996 70.8905 174.273 76.5489C188.55 82.2072 200.755 92.0964 209.251 104.89L208.553 105.353C200.152 92.7023 188.082 82.9232 173.964 77.3278C159.847 71.7324 144.355 70.5884 129.568 74.0493L129.377 73.2334Z" stroke="#4F5D75" stroke-width="1.38139" mask="url(#path-8-inside-8_800_2452)"/>
</g>
<g opacity="0.5">
<mask id="path-9-inside-9_800_2452" fill="white">
<path d="M194.048 204.937C182.136 214.629 167.544 220.447 152.231 221.608C136.917 222.77 121.615 219.221 108.377 211.437L108.801 210.715C121.892 218.412 137.024 221.922 152.167 220.773C167.31 219.624 181.739 213.872 193.519 204.288L194.048 204.937Z"/>
</mask>
<path d="M194.048 204.937C182.136 214.629 167.544 220.447 152.231 221.608C136.917 222.77 121.615 219.221 108.377 211.437L108.801 210.715C121.892 218.412 137.024 221.922 152.167 220.773C167.31 219.624 181.739 213.872 193.519 204.288L194.048 204.937Z" stroke="#4F5D75" stroke-width="1.38139" mask="url(#path-9-inside-9_800_2452)"/>
</g>
<g opacity="0.5">
<mask id="path-10-inside-10_800_2452" fill="white">
<path d="M93.7983 200.267C82.8384 189.509 75.4304 175.657 72.5682 160.569C69.706 145.481 71.5266 129.878 77.7856 115.854L78.5508 116.196C72.3614 130.064 70.5611 145.493 73.3914 160.413C76.2218 175.333 83.5473 189.031 94.3853 199.669L93.7983 200.267Z"/>
</mask>
<path d="M93.7983 200.267C82.8384 189.509 75.4304 175.657 72.5682 160.569C69.706 145.481 71.5266 129.878 77.7856 115.854L78.5508 116.196C72.3614 130.064 70.5611 145.493 73.3914 160.413C76.2218 175.333 83.5473 189.031 94.3853 199.669L93.7983 200.267Z" stroke="#4F5D75" stroke-width="1.38139" mask="url(#path-10-inside-10_800_2452)"/>
</g>
<mask id="path-11-inside-11_800_2452" fill="white">
<path d="M75.1619 122.584C78.4461 112.798 83.7076 103.792 90.6197 96.1251C97.5317 88.4584 105.947 82.295 115.341 78.0178L115.689 78.7804C106.398 83.01 98.0772 89.1048 91.242 96.6862C84.4069 104.268 79.2039 113.174 75.9563 122.851L75.1619 122.584Z"/>
</mask>
<path d="M75.1619 122.584C78.4461 112.798 83.7076 103.792 90.6197 96.1251C97.5317 88.4584 105.947 82.295 115.341 78.0178L115.689 78.7804C106.398 83.01 98.0772 89.1048 91.242 96.6862C84.4069 104.268 79.2039 113.174 75.9563 122.851L75.1619 122.584Z" stroke="#4F5D75" stroke-width="1.38139" mask="url(#path-11-inside-11_800_2452)"/>
<mask id="path-12-inside-12_800_2452" fill="white">
<path d="M156.949 221.099C146.726 222.526 136.318 221.837 126.373 219.072C116.427 216.307 107.156 211.527 99.1364 205.028L99.664 204.377C107.595 210.804 116.762 215.531 126.597 218.265C136.432 220.999 146.724 221.681 156.833 220.269L156.949 221.099Z"/>
</mask>
<path d="M156.949 221.099C146.726 222.526 136.318 221.837 126.373 219.072C116.427 216.307 107.156 211.527 99.1364 205.028L99.664 204.377C107.595 210.804 116.762 215.531 126.597 218.265C136.432 220.999 146.724 221.681 156.833 220.269L156.949 221.099Z" stroke="#4F5D75" stroke-width="1.38139" mask="url(#path-12-inside-12_800_2452)"/>
</g>
</svg>
